<?xml version="1.0" encoding="utf-8"?>
<!-- Generator: Adobe Illustrator 19.2.1, SVG Export Plug-In . SVG Version: 6.00 Build 0)  -->
<svg version="1.1" id="Layer_1" xmlns="http://www.w3.org/2000/svg" xmlns:xlink="http://www.w3.org/1999/xlink" x="0px" y="0px"
	 viewBox="0 0 144 144" style="enable-background:new 0 0 144 144;" xml:space="preserve">
<style type="text/css">
	.st0{fill:#FFFFFF;}
</style>
<g>
	<path class="st0" d="M34.267,95.522c-0.037-0.133-0.066-0.189-0.066-0.244c-0.003-15.497-0.004-30.995-0.003-46.492
		c0-0.076,0.02-0.152,0.036-0.268c0.118-0.015,0.228-0.034,0.339-0.04c0.118-0.007,0.236-0.002,0.354-0.002
		c7.227,0,14.454-0.001,21.681,0.001c1.797,0.001,3.577,0.173,5.329,0.583c1.212,0.284,2.379,0.692,3.479,1.28
		c3.063,1.638,4.903,4.188,5.584,7.571c0.401,1.993,0.375,3.994-0.095,5.978c-0.536,2.26-1.734,4.074-3.675,5.374
		c-0.392,0.263-0.803,0.496-1.206,0.743c-0.132,0.081-0.265,0.162-0.454,0.278c0.245,0.107,0.438,0.193,0.631,0.276
		c1.001,0.429,1.934,0.971,2.772,1.669c1.709,1.424,2.776,3.251,3.335,5.382c0.439,1.671,0.545,3.373,0.395,5.096
		c-0.158,1.808-0.619,3.524-1.456,5.134c-1.267,2.436-3.048,4.386-5.472,5.716c-1.36,0.746-2.822,1.19-4.343,1.462
		c-1.963,0.351-3.94,0.507-5.934,0.505c-6.853-0.007-13.705-0.003-20.558-0.003C34.725,95.522,34.51,95.522,34.267,95.522z
		 M45.078,87.298c0.232,0.093,0.45,0.058,0.661,0.058c3.05,0.003,6.099,0.002,9.149,0.001c0.413,0,0.827,0.001,1.239-0.022
		c0.965-0.052,1.921-0.173,2.842-0.479c1.81-0.601,3.01-1.812,3.544-3.649c0.373-1.284,0.457-2.596,0.217-3.913
		c-0.293-1.611-1.162-2.812-2.638-3.556c-0.495-0.249-1.012-0.434-1.549-0.557c-1.058-0.243-2.134-0.353-3.219-0.355
		c-2.125-0.004-4.25-0.002-6.375-0.003c-1.141,0-2.282-0.002-3.424,0.002c-0.15,0.001-0.317-0.049-0.48,0.134
		c0,3.989,0,8.02,0.001,12.051C45.047,87.103,45.067,87.198,45.078,87.298z M45.115,67.028c0.224,0,0.42,0,0.616,0
		c3.069,0,6.138-0.002,9.207,0.001c0.67,0.001,1.337-0.028,2-0.127c0.959-0.143,1.88-0.408,2.743-0.86
		c1.057-0.553,1.717-1.417,2.004-2.567c0.231-0.927,0.267-1.863,0.13-2.811c-0.266-1.847-1.387-3.032-3.021-3.454
		c-1.458-0.377-2.942-0.543-4.438-0.556c-2.97-0.027-5.941-0.01-8.912-0.009c-0.112,0-0.225,0.022-0.364,0.037
		c-0.013,0.165-0.032,0.298-0.034,0.431C44.981,60.877,45.014,66.393,45.115,67.028z"/>
	<path class="st0" d="M109.779,79.661c-0.844,0.062-1.647,0.022-2.448,0.029c-0.827,0.007-1.654,0.002-2.48,0.002
		c-0.807,0-1.614,0-2.421,0c-0.807,0-1.614,0-2.421,0c-0.827,0-1.654,0-2.48,0c-0.807,0-1.614,0-2.421,0c-0.807,0-1.614,0-2.421,0
		c-0.807,0-1.614,0-2.421,0c-0.827,0-1.654-0.005-2.48,0.002c-0.803,0.006-1.608-0.029-2.44,0.026
		c-0.018,0.114-0.047,0.207-0.044,0.297c0.051,1.249,0.286,2.461,0.776,3.615c0.826,1.947,2.285,3.229,4.255,3.917
		c1.866,0.652,3.785,0.71,5.701,0.24c1.57-0.385,2.823-1.265,3.736-2.611c0.198-0.293,0.383-0.594,0.562-0.875
		c0.037-0.021,0.053-0.031,0.07-0.04c0.018-0.008,0.037-0.018,0.056-0.019c0.098-0.007,0.196-0.016,0.294-0.016
		c2.756,0,5.512,0.001,8.268,0.003c0.059,0,0.117,0.011,0.175,0.021c0.017,0.003,0.032,0.02,0.082,0.054
		c0.074,0.143,0.016,0.315-0.017,0.482c-0.225,1.113-0.661,2.144-1.275,3.093c-2.077,3.208-4.887,5.466-8.585,6.546
		c-2.404,0.702-4.863,0.919-7.36,0.757c-1.999-0.129-3.929-0.55-5.787-1.303c-1.672-0.678-3.201-1.595-4.613-2.714
		c-1.956-1.55-3.258-3.555-4.085-5.885c-0.522-1.472-0.825-2.993-0.992-4.544c-0.189-1.747-0.209-3.497-0.094-5.248
		c0.142-2.171,0.521-4.3,1.339-6.325c1.861-4.613,5.231-7.581,9.974-8.991c2.288-0.68,4.639-0.821,7.015-0.64
		c1.677,0.127,3.31,0.443,4.902,0.988c2.889,0.989,5.191,2.747,6.95,5.239c1.431,2.029,2.331,4.271,2.78,6.705
		c0.19,1.029,0.289,2.067,0.326,3.109c0.044,1.219,0.038,2.44,0.051,3.66C109.804,79.351,109.79,79.468,109.779,79.661z
		 M100.647,73.825c-0.01-0.564-0.102-1.087-0.224-1.603c-0.651-2.744-2.373-4.455-5.07-5.21c-1.037-0.29-2.098-0.311-3.163-0.235
		c-2.388,0.17-4.227,1.245-5.452,3.325c-0.607,1.03-0.966,2.149-1.177,3.318c-0.024,0.132-0.017,0.268-0.026,0.426
		c0.155,0.013,0.29,0.033,0.425,0.034C90.376,73.948,99.969,73.915,100.647,73.825z"/>
	<path class="st0" d="M102.435,50.485c0.017,0.093,0.042,0.167,0.042,0.241c0.002,1.434,0.002,2.868,0.002,4.329
		c-0.135,0.029-0.243,0.065-0.353,0.073c-0.157,0.012-0.314,0.005-0.472,0.005c-5.764,0-11.527,0.001-17.291-0.001
		c-0.251,0-0.507,0.036-0.771-0.055c-0.017-0.082-0.044-0.156-0.044-0.23c-0.003-1.434-0.002-2.867-0.002-4.331
		c0.137-0.028,0.245-0.061,0.355-0.07c0.137-0.012,0.275-0.004,0.413-0.004c5.803,0,11.606,0,17.409,0.001
		C101.954,50.442,102.189,50.42,102.435,50.485z"/>
</g>
</svg>
