<?xml version="1.0" encoding="utf-8"?>
<!-- Generator: Adobe Illustrator 19.2.1, SVG Export Plug-In . SVG Version: 6.00 Build 0)  -->
<svg version="1.1" id="Layer_1" xmlns="http://www.w3.org/2000/svg" xmlns:xlink="http://www.w3.org/1999/xlink" x="0px" y="0px"
	 viewBox="0 0 144 144" style="enable-background:new 0 0 144 144;" xml:space="preserve">
<style type="text/css">
	.st0{fill:#FFFFFF;}
</style>
<path class="st0" d="M101.709,72.012c0,7.613-0.003,15.225,0.004,22.838c0.001,0.912-0.146,1.792-0.512,2.621
	c-1.026,2.322-2.787,3.731-5.302,4.161c-0.348,0.06-0.708,0.076-1.062,0.076c-4.208,0.005-8.417,0.003-12.626,0.003
	c-11.001,0-22.002-0.002-33.003,0.003c-0.943,0.001-1.853-0.148-2.709-0.534c-2.37-1.067-3.767-2.887-4.144-5.467
	c-0.056-0.381-0.064-0.771-0.064-1.156c-0.003-13.585-0.003-27.17-0.003-40.755c0-1.532-0.002-3.064,0.001-4.595
	c0.004-1.777,0.589-3.339,1.781-4.656c1.11-1.225,2.49-1.965,4.134-2.187c0.351-0.047,0.708-0.073,1.063-0.073
	c15.163-0.003,30.326,0.003,45.49-0.008c2.862-0.002,5.369,1.685,6.433,4.224c0.351,0.837,0.522,1.708,0.521,2.62
	C101.707,56.756,101.709,64.384,101.709,72.012z M49.16,67.44c-0.004,0.246-0.01,0.429-0.01,0.612
	c-0.001,8.06-0.001,16.121-0.001,24.181c0,0.139-0.003,0.279,0.002,0.417c0.059,1.361,1.174,2.194,2.206,2.198
	c0.17,0.001,0.34,0.002,0.511,0.002c13.429,0,26.858,0,40.287,0c0.155,0,0.309-0.001,0.464-0.001
	c1.178,0.002,2.221-0.979,2.234-2.211c0.002-0.155,0.002-0.309,0.002-0.464c0-8.029,0-16.059,0-24.088
	c0-0.124,0.006-0.248-0.003-0.371c-0.006-0.086-0.033-0.171-0.049-0.251c-0.073-0.01-0.118-0.023-0.164-0.023
	c-1.562-0.001-3.125-0.002-4.688,0c-0.07,0-0.141,0.024-0.243,0.043c0.956,3.814,0.75,7.542-0.676,11.18
	c-1.433,3.655-3.814,6.555-7.103,8.695c-5.791,3.768-13.231,3.904-19.156,0.431c-0.855-0.502-1.668-1.065-2.43-1.702
	c-0.749-0.626-1.449-1.302-2.093-2.037c-0.654-0.747-1.242-1.541-1.768-2.382c-0.518-0.828-0.968-1.69-1.342-2.592
	c-0.379-0.916-0.693-1.852-0.92-2.818c-0.227-0.965-0.374-1.941-0.452-2.93c-0.077-0.976-0.059-1.947,0.026-2.92
	c0.086-0.986,0.287-1.953,0.501-2.934c-0.088-0.015-0.147-0.034-0.207-0.034C52.466,67.44,50.843,67.44,49.16,67.44z M83.426,72.03
	c0.052-6.19-4.99-11.435-11.396-11.451c-6.284-0.016-11.44,5.059-11.451,11.403c-0.011,6.445,5.245,11.442,11.403,11.452
	C78.281,83.444,83.448,78.305,83.426,72.03z M94.855,54.884L94.855,54.884c0.001-0.587,0.001-1.175,0.001-1.763
	s-0.003-1.175-0.002-1.763c0.002-0.744-0.465-1.681-1.473-2.06c-0.293-0.111-0.596-0.147-0.909-0.147
	c-1.685,0.003-3.371,0.001-5.056,0.002c-0.587,0-1.175-0.01-1.762,0.004c-1.068,0.025-1.955,0.772-2.164,1.821
	c-0.045,0.225-0.059,0.46-0.06,0.69c-0.005,2.134-0.003,4.267-0.003,6.401c0,0.108-0.005,0.217,0.005,0.325
	c0.092,0.983,0.584,1.673,1.505,2.044c0.291,0.118,0.597,0.143,0.91,0.142c2.195-0.003,4.391-0.002,6.586-0.002
	c0.077,0,0.155,0.002,0.232-0.002c0.685-0.038,1.252-0.313,1.685-0.848c0.343-0.424,0.509-0.91,0.506-1.458
	C94.851,57.141,94.855,56.013,94.855,54.884z"/>
</svg>
