<?xml version="1.0" encoding="utf-8"?>
<!-- Generator: Adobe Illustrator 17.0.0, SVG Export Plug-In . SVG Version: 6.00 Build 0)  -->
<!DOCTYPE svg PUBLIC "-//W3C//DTD SVG 1.1//EN" "http://www.w3.org/Graphics/SVG/1.1/DTD/svg11.dtd">
<svg version="1.1" id="Layer_1" xmlns="http://www.w3.org/2000/svg" xmlns:xlink="http://www.w3.org/1999/xlink" x="0px" y="0px"
	 width="72px" height="72px" viewBox="0 0 72 72" enable-background="new 0 0 72 72" xml:space="preserve">
<g>
	<g>
		<path fill="#FFFFFF" d="M36,26.988c-4.98,0-9.012,4.032-9.012,9.012s4.032,9.012,9.012,9.012S44.953,40.98,44.953,36
			S40.921,26.988,36,26.988z M36,41.87c-3.261,0-5.87-2.609-5.87-5.87s2.609-5.87,5.87-5.87c3.261,0,5.87,2.609,5.87,5.87
			S39.202,41.87,36,41.87z"/>
		<path fill="#FFFFFF" d="M36,45.512c-5.245,0-9.512-4.267-9.512-9.512s4.267-9.512,9.512-9.512c5.213,0,9.453,4.267,9.453,9.512
			S41.213,45.512,36,45.512z M36,27.488c-4.694,0-8.512,3.818-8.512,8.512c0,4.693,3.818,8.512,8.512,8.512
			c4.661,0,8.453-3.818,8.453-8.512C44.453,31.306,40.661,27.488,36,27.488z M36,42.37c-3.513,0-6.37-2.857-6.37-6.37
			c0-3.512,2.857-6.37,6.37-6.37c3.512,0,6.369,2.857,6.369,6.37C42.369,39.513,39.512,42.37,36,42.37z M36,30.63
			c-2.961,0-5.37,2.409-5.37,5.37s2.409,5.37,5.37,5.37s5.369-2.409,5.369-5.37S38.961,30.63,36,30.63z"/>
	</g>
	<g>
		<circle fill="#FFFFFF" cx="45.308" cy="26.632" r="2.075"/>
	</g>
	<g>
		<path fill="#FFFFFF" d="M50.585,21.355c-1.897-1.897-4.388-2.905-7.056-2.905H28.47c-2.668,0-5.218,1.067-7.056,2.905
			c-1.897,1.897-2.905,4.388-2.905,7.056v15.178c0,2.668,1.067,5.218,2.905,7.056c1.897,1.897,4.388,2.905,7.056,2.905h15.06
			c2.668,0,5.218-1.067,7.056-2.905c1.897-1.897,2.905-4.388,2.905-7.056V28.411C53.55,25.743,52.483,23.253,50.585,21.355z
			 M50.467,43.589c0,3.795-3.083,6.937-6.937,6.937H28.47c-3.795,0-6.937-3.083-6.937-6.937V28.411c0-3.795,3.083-6.937,6.937-6.937
			h15.06c3.795,0,6.937,3.083,6.937,6.937C50.467,28.411,50.467,43.589,50.467,43.589z"/>
		<path fill="#FFFFFF" d="M43.529,54.05H28.47c-2.81,0-5.441-1.084-7.409-3.052c-1.939-1.938-3.052-4.64-3.052-7.409V28.411
			c0-2.81,1.084-5.441,3.052-7.409C23,19.062,25.7,17.95,28.47,17.95h15.06c2.811,0,5.442,1.084,7.409,3.052
			c2.029,2.029,3.113,4.664,3.052,7.42v15.167c0,2.81-1.084,5.441-3.052,7.409C48.999,52.938,46.299,54.05,43.529,54.05z
			 M28.47,18.95c-2.506,0-4.949,1.005-6.702,2.759c-1.779,1.779-2.759,4.159-2.759,6.702v15.178c0,2.507,1.005,4.949,2.759,6.702
			c1.779,1.779,4.159,2.759,6.702,2.759h15.06c2.506,0,4.949-1.006,6.702-2.759c1.779-1.779,2.759-4.159,2.759-6.702V28.411
			c0.056-2.492-0.924-4.868-2.759-6.702c-1.778-1.779-4.158-2.759-6.702-2.759H28.47z M43.529,51.026H28.47
			c-4.101,0-7.437-3.337-7.437-7.438V28.411c0-4.101,3.336-7.437,7.437-7.437h15.06c4.101,0,7.438,3.336,7.438,7.437v15.178
			C50.967,47.689,47.63,51.026,43.529,51.026z M28.47,21.974c-3.549,0-6.437,2.888-6.437,6.437v15.178
			c0,3.55,2.888,6.438,6.437,6.438h15.06c3.55,0,6.438-2.888,6.438-6.438V28.411c0-3.549-2.888-6.437-6.438-6.437H28.47z"/>
	</g>
</g>
</svg>
