<?xml version="1.0" encoding="utf-8"?>
<!-- Generator: Adobe Illustrator 19.2.1, SVG Export Plug-In . SVG Version: 6.00 Build 0)  -->
<svg version="1.1" id="Layer_1" xmlns="http://www.w3.org/2000/svg" xmlns:xlink="http://www.w3.org/1999/xlink" x="0px" y="0px"
	 viewBox="0 0 144 144" style="enable-background:new 0 0 144 144;" xml:space="preserve">
<style type="text/css">
	.st0{fill:#FFFFFF;}
</style>
<g>
	<path class="st0" d="M53.618,58.727c-3.858,0.027-7.716,0.012-11.575,0.014c-0.996,0-1,0.005-1,0.981
		c-0.001,13.624-0.001,27.247,0,40.87c0,0.995,0.003,1.002,0.985,1.003c3.811,0.003,7.622,0.002,11.432,0
		c1.082-0.001,1.084-0.006,1.085-1.06c0.001-6.764,0-13.528,0-20.292c0-6.859-0.01-13.719,0.014-20.578
		C54.562,58.937,54.329,58.722,53.618,58.727z"/>
	<path class="st0" d="M102.839,67.64c-1.19-4.156-3.546-7.341-7.742-8.778c-1.687-0.578-3.509-0.818-5.29-1.05
		c-2.689-0.351-5.316,0.037-7.829,1.077c-2.736,1.133-4.9,2.954-6.555,5.676c0-1.791-0.034-3.377,0.016-4.96
		c0.022-0.711-0.234-0.882-0.901-0.877c-3.453,0.027-6.907-0.004-10.361,0.019c-1.725,0.011-1.642-0.364-1.647,1.642
		c-0.017,7.241-0.007,14.481-0.007,21.722c0,6.097-0.002,12.195,0.004,18.292c0.001,1.189,0.016,1.192,1.189,1.193
		c3.716,0.002,7.431,0.002,11.147,0c1.112,0,1.107-0.004,1.114-1.08c0.049-7.643,0.072-15.286,0.171-22.928
		c0.021-1.67,0.463-3.301,1.3-4.777c1.13-1.993,2.944-2.91,5.149-3.133c3.744-0.379,6.644,0.848,7.468,5.148
		c0.271,1.417,0.414,2.879,0.422,4.321c0.042,7.169,0.027,14.338,0.006,21.507c-0.002,0.708,0.205,0.961,0.933,0.956
		c3.858-0.028,7.717-0.011,11.576-0.014c0.998-0.001,1.006-0.013,1.006-0.987c0.001-7.717,0.008-15.434-0.003-23.151
		C103.999,74.14,103.758,70.849,102.839,67.64z"/>
	<path class="st0" d="M47.772,37.662c-4.355,0.008-7.725,3.453-7.782,7.818c-0.053,4.165,3.631,7.841,7.859,7.744
		c4.305-0.099,7.71-3.477,7.698-7.821C55.535,41.089,52.085,37.654,47.772,37.662z"/>
</g>
</svg>
