<?xml version="1.0" encoding="utf-8"?>
<!-- Generator: Adobe Illustrator 19.2.1, SVG Export Plug-In . SVG Version: 6.00 Build 0)  -->
<svg version="1.1" id="Layer_1" xmlns="http://www.w3.org/2000/svg" xmlns:xlink="http://www.w3.org/1999/xlink" x="0px" y="0px"
	 viewBox="0 0 144 144" style="enable-background:new 0 0 144 144;" xml:space="preserve">
<style type="text/css">
	.st0{fill:#FFFFFF;}
</style>
<path class="st0" d="M71.428,60.728c-7.371-0.644-13.383-2.791-16.174-4.151c-2.791-1.36-9.375-5.296-14.885-11.522
	c-2.147,3.65-3.936,13.812,4.58,19.895c-1.503,0.215-5.51-1.073-6.655-1.789c0.215,6.298,3.363,12.524,11.736,14.814
	c-0.859,1.145-5.01,0.716-6.441,0.43c1.861,5.296,6.298,9.59,13.883,10.448c-3.507,4.079-15.458,7.299-22.113,6.298
	c17.319,9.446,37.142,9.303,51.598-4.079c14.456-13.382,14.17-27.981,14.492-33.885c1.539-1.038,6.047-5.332,7.192-7.693
	c-2.791,0.716-4.652,1.574-8.015,1.932c2.934-2.147,5.367-5.296,5.94-7.944c-2.219,1.503-7.371,3.149-9.303,3.435
	c-4.508-3.793-9.733-6.87-18.893-2.576C70.354,48.992,70.783,58.653,71.428,60.728z"/>
</svg>
