<?xml version="1.0" encoding="utf-8"?>
<!-- Generator: Adobe Illustrator 17.0.0, SVG Export Plug-In . SVG Version: 6.00 Build 0)  -->
<!DOCTYPE svg PUBLIC "-//W3C//DTD SVG 1.1//EN" "http://www.w3.org/Graphics/SVG/1.1/DTD/svg11.dtd">
<svg version="1.1" id="Layer_1" xmlns="http://www.w3.org/2000/svg" xmlns:xlink="http://www.w3.org/1999/xlink" x="0px" y="0px"
	 width="26.584px" height="26.584px" viewBox="0 0 26.584 26.584" enable-background="new 0 0 26.584 26.584" xml:space="preserve">
<path fill="#FFFFFF" d="M13.292,0C5.963,0,0,5.963,0,13.292s5.963,13.292,13.292,13.292s13.292-5.963,13.292-13.292
	S20.621,0,13.292,0z M13.292,23.286c-4.949,0-9.067-3.617-9.856-8.345h10.947l-3.282,3.282c-0.644,0.644-0.644,1.688,0,2.332
	c0.322,0.322,0.744,0.483,1.166,0.483s0.844-0.161,1.166-0.483l6.096-6.096c0.004-0.004,0.007-0.008,0.01-0.011
	c0.034-0.035,0.067-0.071,0.099-0.109c0.017-0.021,0.032-0.043,0.048-0.065c0.016-0.022,0.033-0.043,0.048-0.065
	c0.017-0.025,0.031-0.05,0.046-0.076c0.012-0.021,0.025-0.041,0.037-0.062c0.014-0.026,0.026-0.052,0.038-0.079
	c0.011-0.022,0.022-0.045,0.031-0.068c0.011-0.026,0.019-0.052,0.028-0.078c0.009-0.025,0.018-0.049,0.026-0.075
	c0.008-0.026,0.014-0.052,0.02-0.078c0.007-0.026,0.014-0.052,0.019-0.078c0.006-0.03,0.01-0.061,0.014-0.091
	c0.003-0.023,0.008-0.045,0.01-0.068c0.005-0.054,0.008-0.109,0.008-0.163c0-0.054-0.003-0.109-0.008-0.163
	c-0.002-0.023-0.007-0.046-0.01-0.069c-0.004-0.03-0.008-0.06-0.014-0.09c-0.005-0.027-0.013-0.054-0.02-0.08
	c-0.006-0.025-0.012-0.051-0.02-0.076c-0.008-0.026-0.018-0.052-0.027-0.078c-0.009-0.025-0.017-0.05-0.027-0.075
	c-0.01-0.024-0.022-0.048-0.033-0.071c-0.012-0.025-0.023-0.05-0.036-0.075c-0.012-0.023-0.027-0.046-0.04-0.068
	c-0.014-0.023-0.027-0.047-0.043-0.07c-0.017-0.025-0.036-0.05-0.054-0.074c-0.013-0.017-0.024-0.035-0.038-0.051
	c-0.001-0.001-0.003-0.003-0.004-0.004c-0.035-0.042-0.071-0.083-0.11-0.122L13.434,6.03c-0.644-0.644-1.688-0.644-2.332,0
	c-0.644,0.644-0.644,1.688,0,2.332l3.282,3.282H3.436c0.789-4.729,4.907-8.345,9.856-8.345c5.511,0,9.994,4.483,9.994,9.994
	S18.803,23.286,13.292,23.286z"/>
</svg>
