<svg id="Layer_1" data-name="Layer 1" xmlns="http://www.w3.org/2000/svg" viewBox="0 0 288 243.96"><defs><style>.cls-1{fill:#fff;}</style></defs><title>FZ_logo_white</title><path class="cls-1" d="M270.46,18.35a58.1,58.1,0,0,0-82.17,0l-8.42,8.43a6.48,6.48,0,0,0-1.13,1.69,120.77,120.77,0,0,0-69.68-.3,6.31,6.31,0,0,0-.92-1.39l-8.42-8.43h0a58.11,58.11,0,0,0-82.17,82.17h0L26,109a6.31,6.31,0,0,0,1.42.94,120.5,120.5,0,0,0-5,34.24V244H264.33V144.14a120.59,120.59,0,0,0-4.81-33.68A6.39,6.39,0,0,0,262,109l8.43-8.42h0A58.1,58.1,0,0,0,270.46,18.35ZM26.79,91.28h0A45,45,0,0,1,90.46,27.6h0l5.34,5.34A120.65,120.65,0,0,0,78.55,42.1a6.39,6.39,0,0,0-1-1.55A26.72,26.72,0,0,0,39.73,78.34a6.3,6.3,0,0,0,1.57,1,120.29,120.29,0,0,0-9.15,17.26ZM68,49.61A122.06,122.06,0,0,0,48.8,68.87,13.61,13.61,0,0,1,49,49.79,14,14,0,0,1,68,49.61Zm32,181.27a70.05,70.05,0,0,1,86.62,0H100.06Zm105.43,0a82.75,82.75,0,0,0-124.22,0H57.9a101.57,101.57,0,0,1,171,0H205.49Zm45.76,0H244a114.52,114.52,0,0,0-201.18,0H35.49V208a132.93,132.93,0,0,1,215.76,0v22.86ZM143.37,86a58.17,58.17,0,0,0-58.11,58.1v7.7A146.85,146.85,0,0,0,67,161.39V144.14a76.41,76.41,0,0,1,152.83,0v17.24a147.43,147.43,0,0,0-18.31-9.55v-7.69A58.17,58.17,0,0,0,143.37,86Zm0,31.38a26.67,26.67,0,0,0-26.52,24.71,144.89,144.89,0,0,0-18.51,4.75v-2.74a45,45,0,0,1,90.06,0v2.74a146,146,0,0,0-18.51-4.75A26.67,26.67,0,0,0,143.37,117.42Zm13,22.92c-4.32-.38-8.66-0.65-13-0.65s-8.72.27-13,.65A13.56,13.56,0,0,1,156.41,140.34Zm94.84,47.05a145.84,145.84,0,0,0-18.39-17V144.14a89.49,89.49,0,0,0-179,0v26.26a147,147,0,0,0-18.39,17V144.14a107.88,107.88,0,0,1,215.76,0v43.25Zm-32-137.31a5.07,5.07,0,0,0,.43-0.29,14,14,0,0,1,19.3,0,13.65,13.65,0,0,1,0,19.3,6.14,6.14,0,0,0-.41.63A122,122,0,0,0,219.3,50.08Zm41.92,41.2h0L255,97.52a120.9,120.9,0,0,0-9.22-17.68,6.42,6.42,0,0,0,2.52-1.5,26.72,26.72,0,1,0-37.79-37.79,6.47,6.47,0,0,0-1.4,2.12,120.58,120.58,0,0,0-17.28-9.33l5.73-5.74A45,45,0,0,1,261.22,91.28Z"/></svg>