<?xml version="1.0" encoding="utf-8"?>
<!-- Generator: Adobe Illustrator 17.0.0, SVG Export Plug-In . SVG Version: 6.00 Build 0)  -->
<!DOCTYPE svg PUBLIC "-//W3C//DTD SVG 1.1//EN" "http://www.w3.org/Graphics/SVG/1.1/DTD/svg11.dtd">
<svg version="1.1" id="Layer_1" xmlns="http://www.w3.org/2000/svg" xmlns:xlink="http://www.w3.org/1999/xlink" x="0px" y="0px"
	 width="72px" height="59.536px" viewBox="0 0 72 59.536" enable-background="new 0 0 72 59.536" xml:space="preserve">
<path fill="#FFFFFF" d="M71.981,1.326c-0.002-0.014-0.007-0.027-0.01-0.041c-0.028-0.142-0.076-0.282-0.144-0.417
	c-0.007-0.014-0.012-0.029-0.019-0.043c-0.004-0.007-0.005-0.014-0.009-0.021c-0.072-0.128-0.164-0.238-0.264-0.338
	c-0.017-0.017-0.032-0.034-0.05-0.05c-0.114-0.104-0.241-0.19-0.377-0.256c-0.01-0.005-0.016-0.013-0.026-0.018
	c-0.01-0.005-0.021-0.004-0.032-0.009c-0.141-0.062-0.29-0.104-0.444-0.123c-0.02-0.003-0.04-0.003-0.061-0.005
	c-0.151-0.013-0.304-0.008-0.457,0.024c-0.013,0.003-0.025,0.008-0.038,0.011c-0.072,0.017-0.145,0.034-0.216,0.062L1.344,26.753
	c-0.602,0.235-1.002,0.809-1.015,1.455c-0.012,0.646,0.368,1.235,0.961,1.491l21.099,9.114l6.761,19.649
	c0.004,0.013,0.014,0.022,0.018,0.034c0.05,0.135,0.116,0.264,0.203,0.384c0.016,0.022,0.036,0.041,0.053,0.062
	c0.042,0.051,0.08,0.104,0.129,0.151c0.043,0.041,0.092,0.073,0.138,0.109c0.023,0.017,0.043,0.036,0.066,0.052
	c0.119,0.082,0.246,0.145,0.379,0.19c0.026,0.009,0.051,0.015,0.077,0.022c0.145,0.042,0.293,0.07,0.442,0.07
	c0.012,0,0.025,0,0.038-0.001c0.012,0,0.022-0.006,0.034-0.006c0.141-0.006,0.279-0.033,0.414-0.077
	c0.025-0.008,0.05-0.013,0.074-0.023c0.135-0.051,0.262-0.12,0.382-0.208c0.025-0.018,0.046-0.039,0.069-0.058
	c0.046-0.038,0.095-0.072,0.138-0.117l11.629-12.119l18.564,6.831c0.178,0.065,0.364,0.098,0.55,0.098
	c0.281,0,0.56-0.075,0.808-0.22c0.411-0.243,0.693-0.656,0.766-1.128l7.864-50.677c0.002-0.014-0.002-0.027,0-0.041
	C72.005,1.637,72.007,1.481,71.981,1.326z M34.04,41.175c-0.004,0.005-0.007,0.011-0.011,0.016c-0.076,0.09-0.143,0.188-0.199,0.295
	c-0.013,0.024-0.019,0.05-0.03,0.075c-0.031,0.068-0.063,0.136-0.085,0.21l-3.184,10.915l-4.987-14.493l33.304-25.679L34.04,41.175z
	 M60.675,7.085L23.438,35.796L6.115,28.314L60.675,7.085z M34.003,52.157l2.292-7.857l3.879,1.427L34.003,52.157z M61.273,50.099
	l-17.696-6.512c-0.002-0.001-0.004-0.001-0.005-0.002l-5.618-2.067L67.989,6.82L61.273,50.099z"/>
</svg>
